<svg width="512" height="512" viewBox="0 0 512 512" fill="none" xmlns="http://www.w3.org/2000/svg">
<g filter="url(#filter0_d_3434_4)">
<rect x="6" y="4" width="500" height="500" rx="60" fill="white"/>
</g>
<path d="M38.85 340C37.1633 340 35.7833 339.463 34.71 338.39C33.6367 337.317 33.1 335.937 33.1 334.25V184.75C33.1 183.063 33.6367 181.683 34.71 180.61C35.7833 179.537 37.1633 179 38.85 179H63.23C65.8367 179 67.6767 179.613 68.75 180.84C69.9767 181.913 70.7433 182.757 71.05 183.37L127.17 271.92V184.75C127.17 183.063 127.707 181.683 128.78 180.61C129.853 179.537 131.233 179 132.92 179H160.52C162.207 179 163.587 179.537 164.66 180.61C165.733 181.683 166.27 183.063 166.27 184.75V334.25C166.27 335.783 165.733 337.163 164.66 338.39C163.587 339.463 162.207 340 160.52 340H135.91C133.457 340 131.617 339.387 130.39 338.16C129.317 336.933 128.627 336.09 128.32 335.63L72.2 250.53V334.25C72.2 335.937 71.6633 337.317 70.59 338.39C69.5167 339.463 68.1367 340 66.45 340H38.85ZM197.723 340C196.036 340 194.579 339.463 193.353 338.39C192.279 337.317 191.743 335.937 191.743 334.25V317.92C191.743 316.847 192.049 315.237 192.663 313.09C193.276 310.79 194.886 308.643 197.492 306.65L221.413 283.19C233.679 273.837 243.723 265.94 251.543 259.5C259.516 252.907 265.419 247.08 269.253 242.02C273.086 236.96 275.003 232.207 275.003 227.76C275.003 222.547 273.623 218.253 270.863 214.88C268.256 211.353 263.656 209.59 257.063 209.59C252.616 209.59 248.859 210.587 245.793 212.58C242.879 214.42 240.656 216.873 239.123 219.94C237.589 223.007 236.516 226.15 235.903 229.37C235.289 231.363 234.216 232.743 232.683 233.51C231.303 234.277 229.769 234.66 228.083 234.66H199.333C197.953 234.66 196.803 234.2 195.883 233.28C194.963 232.36 194.503 231.21 194.503 229.83C194.656 222.47 196.189 215.57 199.103 209.13C202.169 202.69 206.386 197.017 211.753 192.11C217.273 187.05 223.789 183.14 231.303 180.38C238.969 177.62 247.556 176.24 257.063 176.24C270.096 176.24 281.136 178.31 290.183 182.45C299.383 186.59 306.359 192.417 311.113 199.93C315.866 207.29 318.243 215.953 318.243 225.92C318.243 233.433 316.556 240.487 313.183 247.08C309.963 253.52 305.286 259.73 299.153 265.71C293.173 271.537 286.043 277.593 277.763 283.88L256.603 305.27H315.713C317.399 305.27 318.779 305.807 319.853 306.88C321.079 307.953 321.693 309.333 321.693 311.02V334.25C321.693 335.937 321.079 337.317 319.853 338.39C318.779 339.463 317.399 340 315.713 340H197.723ZM420.474 340C418.941 340 417.561 339.463 416.334 338.39C415.261 337.317 414.724 335.937 414.724 334.25V308.26H343.194C341.661 308.26 340.281 307.723 339.054 306.65C337.981 305.577 337.444 304.197 337.444 302.51V280.66C337.444 279.28 337.674 278.053 338.134 276.98C338.747 275.753 339.361 274.603 339.974 273.53L406.904 182.91C408.897 180.303 411.734 179 415.414 179H448.764C450.451 179 451.831 179.537 452.904 180.61C454.131 181.683 454.744 183.063 454.744 184.75V273.99H474.984C476.824 273.99 478.281 274.603 479.354 275.83C480.427 276.903 480.964 278.207 480.964 279.74V302.51C480.964 304.197 480.351 305.577 479.124 306.65C478.051 307.723 476.747 308.26 475.214 308.26H454.744V334.25C454.744 335.937 454.131 337.317 452.904 338.39C451.831 339.463 450.451 340 448.764 340H420.474ZM377.004 275.6H415.644V221.32L377.004 275.6Z" fill="#295091"/>
<defs>
<filter id="filter0_d_3434_4" x="0" y="0" width="512" height="512" filterUnits="userSpaceOnUse" color-interpolation-filters="sRGB">
<feFlood flood-opacity="0" result="BackgroundImageFix"/>
<feColorMatrix in="SourceAlpha" type="matrix" values="0 0 0 0 0 0 0 0 0 0 0 0 0 0 0 0 0 0 127 0" result="hardAlpha"/>
<feOffset dy="2"/>
<feGaussianBlur stdDeviation="3"/>
<feColorMatrix type="matrix" values="0 0 0 0 0.791667 0 0 0 0 0.791667 0 0 0 0 0.791667 0 0 0 0.25 0"/>
<feBlend mode="normal" in2="BackgroundImageFix" result="effect1_dropShadow_3434_4"/>
<feBlend mode="normal" in="SourceGraphic" in2="effect1_dropShadow_3434_4" result="shape"/>
</filter>
</defs>
</svg>
