<svg width="332" height="52" viewBox="0 0 332 52" fill="none" xmlns="http://www.w3.org/2000/svg">
<g filter="url(#filter0_d_3434_2)">
<rect x="6" y="4" width="320" height="40" rx="5" fill="white"/>
</g>
<path d="M16.66 33C16.4547 33 16.2867 32.9347 16.156 32.804C16.0253 32.6733 15.96 32.5053 15.96 32.3V14.1C15.96 13.8947 16.0253 13.7267 16.156 13.596C16.2867 13.4653 16.4547 13.4 16.66 13.4H19.628C19.9453 13.4 20.1693 13.4747 20.3 13.624C20.4493 13.7547 20.5427 13.8573 20.58 13.932L27.412 24.712V14.1C27.412 13.8947 27.4773 13.7267 27.608 13.596C27.7387 13.4653 27.9067 13.4 28.112 13.4H31.472C31.6773 13.4 31.8453 13.4653 31.976 13.596C32.1067 13.7267 32.172 13.8947 32.172 14.1V32.3C32.172 32.4867 32.1067 32.6547 31.976 32.804C31.8453 32.9347 31.6773 33 31.472 33H28.476C28.1773 33 27.9533 32.9253 27.804 32.776C27.6733 32.6267 27.5893 32.524 27.552 32.468L20.72 22.108V32.3C20.72 32.5053 20.6547 32.6733 20.524 32.804C20.3933 32.9347 20.2253 33 20.02 33H16.66ZM34.965 33C34.8157 33 34.6757 32.944 34.545 32.832C34.433 32.7013 34.377 32.5613 34.377 32.412C34.377 32.3187 34.3863 32.2347 34.405 32.16L40.985 14.184C41.041 13.9787 41.153 13.8013 41.321 13.652C41.5077 13.484 41.7597 13.4 42.077 13.4H46.221C46.5383 13.4 46.781 13.484 46.949 13.652C47.1357 13.8013 47.257 13.9787 47.313 14.184L53.865 32.16C53.9023 32.2347 53.921 32.3187 53.921 32.412C53.921 32.5613 53.8557 32.7013 53.725 32.832C53.613 32.944 53.473 33 53.305 33H49.861C49.581 33 49.3663 32.9347 49.217 32.804C49.0863 32.6547 49.0023 32.524 48.965 32.412L47.873 29.556H40.397L39.333 32.412C39.2957 32.524 39.2117 32.6547 39.081 32.804C38.9503 32.9347 38.7263 33 38.409 33H34.965ZM41.545 25.524H46.753L44.121 18.132L41.545 25.524ZM56.828 33C56.6413 33 56.4733 32.9347 56.324 32.804C56.1933 32.6733 56.128 32.5053 56.128 32.3V14.1C56.128 13.8947 56.1933 13.7267 56.324 13.596C56.4733 13.4653 56.6413 13.4 56.828 13.4H59.852C60.1506 13.4 60.3746 13.484 60.524 13.652C60.692 13.8013 60.7946 13.9227 60.832 14.016L65.76 22.864L70.688 14.016C70.744 13.9227 70.8373 13.8013 70.968 13.652C71.1173 13.484 71.3506 13.4 71.668 13.4H74.664C74.8693 13.4 75.0373 13.4653 75.168 13.596C75.3173 13.7267 75.392 13.8947 75.392 14.1V32.3C75.392 32.5053 75.3173 32.6733 75.168 32.804C75.0373 32.9347 74.8693 33 74.664 33H71.332C71.1266 33 70.9493 32.9347 70.8 32.804C70.6693 32.6733 70.604 32.5053 70.604 32.3V21.8L67.44 27.652C67.3653 27.82 67.2533 27.9693 67.104 28.1C66.9546 28.2307 66.7493 28.296 66.488 28.296H65.032C64.7706 28.296 64.5653 28.2307 64.416 28.1C64.2666 27.9693 64.1453 27.82 64.052 27.652L60.888 21.8V32.3C60.888 32.5053 60.8226 32.6733 60.692 32.804C60.5613 32.9347 60.3933 33 60.188 33H56.828ZM78.1681 33C78.0188 33 77.8788 32.944 77.7481 32.832C77.6361 32.7013 77.5801 32.5613 77.5801 32.412C77.5801 32.3187 77.5895 32.2347 77.6081 32.16L84.1881 14.184C84.2441 13.9787 84.3561 13.8013 84.5241 13.652C84.7108 13.484 84.9628 13.4 85.2801 13.4H89.4241C89.7415 13.4 89.9841 13.484 90.1521 13.652C90.3388 13.8013 90.4601 13.9787 90.5161 14.184L97.0681 32.16C97.1055 32.2347 97.1241 32.3187 97.1241 32.412C97.1241 32.5613 97.0588 32.7013 96.9281 32.832C96.8161 32.944 96.6761 33 96.5081 33H93.0641C92.7841 33 92.5695 32.9347 92.4201 32.804C92.2895 32.6547 92.2055 32.524 92.1681 32.412L91.0761 29.556H83.6001L82.5361 32.412C82.4988 32.524 82.4148 32.6547 82.2841 32.804C82.1535 32.9347 81.9295 33 81.6121 33H78.1681ZM84.7481 25.524H89.9561L87.3241 18.132L84.7481 25.524ZM100.031 33C99.8258 33 99.6578 32.9347 99.5271 32.804C99.3964 32.6733 99.3311 32.5053 99.3311 32.3V14.1C99.3311 13.8947 99.3964 13.7267 99.5271 13.596C99.6578 13.4653 99.8258 13.4 100.031 13.4H102.999C103.316 13.4 103.54 13.4747 103.671 13.624C103.82 13.7547 103.914 13.8573 103.951 13.932L110.783 24.712V14.1C110.783 13.8947 110.848 13.7267 110.979 13.596C111.11 13.4653 111.278 13.4 111.483 13.4H114.843C115.048 13.4 115.216 13.4653 115.347 13.596C115.478 13.7267 115.543 13.8947 115.543 14.1V32.3C115.543 32.4867 115.478 32.6547 115.347 32.804C115.216 32.9347 115.048 33 114.843 33H111.847C111.548 33 111.324 32.9253 111.175 32.776C111.044 32.6267 110.96 32.524 110.923 32.468L104.091 22.108V32.3C104.091 32.5053 104.026 32.6733 103.895 32.804C103.764 32.9347 103.596 33 103.391 33H100.031ZM127.548 33.28C125.775 33.28 124.244 32.9907 122.956 32.412C121.687 31.8147 120.697 30.956 119.988 29.836C119.297 28.6973 118.915 27.316 118.84 25.692C118.821 24.8893 118.812 24.04 118.812 23.144C118.812 22.2293 118.821 21.3613 118.84 20.54C118.915 18.9533 119.307 17.6093 120.016 16.508C120.725 15.4067 121.724 14.5667 123.012 13.988C124.3 13.4093 125.812 13.12 127.548 13.12C128.948 13.12 130.189 13.2973 131.272 13.652C132.355 13.988 133.26 14.4453 133.988 15.024C134.735 15.6027 135.295 16.2373 135.668 16.928C136.06 17.6187 136.265 18.3 136.284 18.972C136.303 19.14 136.247 19.28 136.116 19.392C136.004 19.504 135.864 19.56 135.696 19.56H131.608C131.403 19.56 131.244 19.532 131.132 19.476C131.039 19.4013 130.955 19.2987 130.88 19.168C130.749 18.888 130.553 18.5987 130.292 18.3C130.049 17.9827 129.704 17.712 129.256 17.488C128.827 17.264 128.257 17.152 127.548 17.152C126.484 17.152 125.644 17.432 125.028 17.992C124.431 18.552 124.104 19.448 124.048 20.68C123.992 22.2853 123.992 23.9093 124.048 25.552C124.104 26.8587 124.449 27.8013 125.084 28.38C125.719 28.9587 126.559 29.248 127.604 29.248C128.313 29.248 128.939 29.1267 129.48 28.884C130.04 28.6413 130.479 28.268 130.796 27.764C131.113 27.2413 131.272 26.5787 131.272 25.776V25.244H128.64C128.435 25.244 128.257 25.1787 128.108 25.048C127.977 24.8987 127.912 24.7213 127.912 24.516V22.444C127.912 22.2387 127.977 22.0707 128.108 21.94C128.257 21.7907 128.435 21.716 128.64 21.716H135.696C135.901 21.716 136.069 21.7907 136.2 21.94C136.331 22.0707 136.396 22.2387 136.396 22.444V25.636C136.396 27.2413 136.032 28.6133 135.304 29.752C134.576 30.8907 133.54 31.768 132.196 32.384C130.871 32.9813 129.321 33.28 127.548 33.28ZM138.051 33C137.902 33 137.762 32.944 137.631 32.832C137.519 32.7013 137.463 32.5613 137.463 32.412C137.463 32.3187 137.472 32.2347 137.491 32.16L144.071 14.184C144.127 13.9787 144.239 13.8013 144.407 13.652C144.594 13.484 144.846 13.4 145.163 13.4H149.307C149.624 13.4 149.867 13.484 150.035 13.652C150.222 13.8013 150.343 13.9787 150.399 14.184L156.951 32.16C156.988 32.2347 157.007 32.3187 157.007 32.412C157.007 32.5613 156.942 32.7013 156.811 32.832C156.699 32.944 156.559 33 156.391 33H152.947C152.667 33 152.452 32.9347 152.303 32.804C152.172 32.6547 152.088 32.524 152.051 32.412L150.959 29.556H143.483L142.419 32.412C142.382 32.524 142.298 32.6547 142.167 32.804C142.036 32.9347 141.812 33 141.495 33H138.051ZM144.631 25.524H149.839L147.207 18.132L144.631 25.524ZM159.914 33C159.709 33 159.541 32.9347 159.41 32.804C159.279 32.6733 159.214 32.5053 159.214 32.3V14.1C159.214 13.8947 159.279 13.7267 159.41 13.596C159.541 13.4653 159.709 13.4 159.914 13.4H162.882C163.199 13.4 163.423 13.4747 163.554 13.624C163.703 13.7547 163.797 13.8573 163.834 13.932L170.666 24.712V14.1C170.666 13.8947 170.731 13.7267 170.862 13.596C170.993 13.4653 171.161 13.4 171.366 13.4H174.726C174.931 13.4 175.099 13.4653 175.23 13.596C175.361 13.7267 175.426 13.8947 175.426 14.1V32.3C175.426 32.4867 175.361 32.6547 175.23 32.804C175.099 32.9347 174.931 33 174.726 33H171.73C171.431 33 171.207 32.9253 171.058 32.776C170.927 32.6267 170.843 32.524 170.806 32.468L163.974 22.108V32.3C163.974 32.5053 163.909 32.6733 163.778 32.804C163.647 32.9347 163.479 33 163.274 33H159.914ZM180.039 33C179.834 33 179.666 32.9347 179.535 32.804C179.404 32.6733 179.339 32.5053 179.339 32.3V14.1C179.339 13.8947 179.404 13.7267 179.535 13.596C179.666 13.4653 179.834 13.4 180.039 13.4H183.735C183.922 13.4 184.08 13.4653 184.211 13.596C184.36 13.7267 184.435 13.8947 184.435 14.1V28.772H192.891C193.096 28.772 193.264 28.8467 193.395 28.996C193.544 29.1267 193.619 29.2947 193.619 29.5V32.3C193.619 32.5053 193.544 32.6733 193.395 32.804C193.264 32.9347 193.096 33 192.891 33H180.039ZM196.746 33C196.541 33 196.373 32.9347 196.242 32.804C196.111 32.6733 196.046 32.5053 196.046 32.3V14.1C196.046 13.8947 196.111 13.7267 196.242 13.596C196.373 13.4653 196.541 13.4 196.746 13.4H200.498C200.703 13.4 200.871 13.4653 201.002 13.596C201.133 13.7267 201.198 13.8947 201.198 14.1V32.3C201.198 32.5053 201.133 32.6733 201.002 32.804C200.871 32.9347 200.703 33 200.498 33H196.746ZM205.824 33C205.619 33 205.451 32.9347 205.32 32.804C205.189 32.6733 205.124 32.5053 205.124 32.3V14.1C205.124 13.8947 205.189 13.7267 205.32 13.596C205.451 13.4653 205.619 13.4 205.824 13.4H209.352C209.557 13.4 209.725 13.4653 209.856 13.596C209.987 13.7267 210.052 13.8947 210.052 14.1V20.316L215.232 13.932C215.307 13.82 215.428 13.708 215.596 13.596C215.783 13.4653 216.025 13.4 216.324 13.4H220.356C220.524 13.4 220.664 13.4653 220.776 13.596C220.888 13.708 220.944 13.8387 220.944 13.988C220.944 14.1187 220.907 14.2307 220.832 14.324L214.14 22.78L221.364 32.076C221.439 32.1507 221.476 32.2627 221.476 32.412C221.476 32.5613 221.411 32.7013 221.28 32.832C221.168 32.944 221.037 33 220.888 33H216.716C216.38 33 216.119 32.9253 215.932 32.776C215.764 32.6267 215.652 32.5147 215.596 32.44L210.052 25.524V32.3C210.052 32.5053 209.987 32.6733 209.856 32.804C209.725 32.9347 209.557 33 209.352 33H205.824ZM224.363 33C224.158 33 223.99 32.9347 223.859 32.804C223.728 32.6733 223.663 32.5053 223.663 32.3V14.1C223.663 13.8947 223.728 13.7267 223.859 13.596C223.99 13.4653 224.158 13.4 224.363 13.4H228.059C228.246 13.4 228.404 13.4653 228.535 13.596C228.684 13.7267 228.759 13.8947 228.759 14.1V28.772H237.215C237.42 28.772 237.588 28.8467 237.719 28.996C237.868 29.1267 237.943 29.2947 237.943 29.5V32.3C237.943 32.5053 237.868 32.6733 237.719 32.804C237.588 32.9347 237.42 33 237.215 33H224.363ZM239.25 33C239.101 33 238.961 32.944 238.83 32.832C238.718 32.7013 238.662 32.5613 238.662 32.412C238.662 32.3187 238.671 32.2347 238.69 32.16L245.27 14.184C245.326 13.9787 245.438 13.8013 245.606 13.652C245.793 13.484 246.045 13.4 246.362 13.4H250.506C250.823 13.4 251.066 13.484 251.234 13.652C251.421 13.8013 251.542 13.9787 251.598 14.184L258.15 32.16C258.187 32.2347 258.206 32.3187 258.206 32.412C258.206 32.5613 258.141 32.7013 258.01 32.832C257.898 32.944 257.758 33 257.59 33H254.146C253.866 33 253.651 32.9347 253.502 32.804C253.371 32.6547 253.287 32.524 253.25 32.412L252.158 29.556H244.682L243.618 32.412C243.581 32.524 243.497 32.6547 243.366 32.804C243.235 32.9347 243.011 33 242.694 33H239.25ZM245.83 25.524H251.038L248.406 18.132L245.83 25.524ZM261.113 33C260.908 33 260.74 32.9347 260.609 32.804C260.478 32.6733 260.413 32.5053 260.413 32.3V14.1C260.413 13.8947 260.478 13.7267 260.609 13.596C260.74 13.4653 260.908 13.4 261.113 13.4H268.729C271.137 13.4 273.032 13.96 274.413 15.08C275.813 16.1813 276.513 17.7493 276.513 19.784C276.513 21.1093 276.186 22.2293 275.533 23.144C274.898 24.0587 274.058 24.7493 273.013 25.216L276.877 32.104C276.933 32.216 276.961 32.3187 276.961 32.412C276.961 32.5613 276.896 32.7013 276.765 32.832C276.653 32.944 276.513 33 276.345 33H272.649C272.294 33 272.033 32.916 271.865 32.748C271.697 32.5613 271.576 32.3933 271.501 32.244L268.309 26.084H265.425V32.3C265.425 32.5053 265.36 32.6733 265.229 32.804C265.098 32.9347 264.93 33 264.725 33H261.113ZM265.425 22.136H268.673C269.55 22.136 270.204 21.9213 270.633 21.492C271.081 21.0627 271.305 20.4747 271.305 19.728C271.305 19 271.09 18.412 270.661 17.964C270.25 17.516 269.588 17.292 268.673 17.292H265.425V22.136ZM279.689 33C279.483 33 279.306 32.9347 279.157 32.804C279.026 32.6733 278.961 32.5053 278.961 32.3V30.312C278.961 30.1813 278.998 29.9853 279.073 29.724C279.147 29.444 279.343 29.1827 279.66 28.94L282.573 26.084C284.066 24.9453 285.289 23.984 286.241 23.2C287.211 22.3973 287.93 21.688 288.397 21.072C288.863 20.456 289.097 19.8773 289.097 19.336C289.097 18.7013 288.929 18.1787 288.593 17.768C288.275 17.3387 287.715 17.124 286.913 17.124C286.371 17.124 285.914 17.2453 285.541 17.488C285.186 17.712 284.915 18.0107 284.729 18.384C284.542 18.7573 284.411 19.14 284.337 19.532C284.262 19.7747 284.131 19.9427 283.945 20.036C283.777 20.1293 283.59 20.176 283.385 20.176H279.885C279.717 20.176 279.577 20.12 279.465 20.008C279.353 19.896 279.297 19.756 279.297 19.588C279.315 18.692 279.502 17.852 279.857 17.068C280.23 16.284 280.743 15.5933 281.397 14.996C282.069 14.38 282.862 13.904 283.777 13.568C284.71 13.232 285.755 13.064 286.913 13.064C288.499 13.064 289.843 13.316 290.945 13.82C292.065 14.324 292.914 15.0333 293.493 15.948C294.071 16.844 294.361 17.8987 294.361 19.112C294.361 20.0267 294.155 20.8853 293.745 21.688C293.353 22.472 292.783 23.228 292.037 23.956C291.309 24.6653 290.441 25.4027 289.433 26.168L286.857 28.772H294.053C294.258 28.772 294.426 28.8373 294.557 28.968C294.706 29.0987 294.781 29.2667 294.781 29.472V32.3C294.781 32.5053 294.706 32.6733 294.557 32.804C294.426 32.9347 294.258 33 294.053 33H279.689ZM306.806 33C306.619 33 306.451 32.9347 306.302 32.804C306.171 32.6733 306.106 32.5053 306.106 32.3V29.136H297.398C297.211 29.136 297.043 29.0707 296.894 28.94C296.763 28.8093 296.698 28.6413 296.698 28.436V25.776C296.698 25.608 296.726 25.4587 296.782 25.328C296.857 25.1787 296.931 25.0387 297.006 24.908L305.154 13.876C305.397 13.5587 305.742 13.4 306.19 13.4H310.25C310.455 13.4 310.623 13.4653 310.754 13.596C310.903 13.7267 310.978 13.8947 310.978 14.1V24.964H313.442C313.666 24.964 313.843 25.0387 313.974 25.188C314.105 25.3187 314.17 25.4773 314.17 25.664V28.436C314.17 28.6413 314.095 28.8093 313.946 28.94C313.815 29.0707 313.657 29.136 313.47 29.136H310.978V32.3C310.978 32.5053 310.903 32.6733 310.754 32.804C310.623 32.9347 310.455 33 310.25 33H306.806ZM301.514 25.16H306.218V18.552L301.514 25.16Z" fill="#295091"/>
<defs>
<filter id="filter0_d_3434_2" x="0" y="0" width="332" height="52" filterUnits="userSpaceOnUse" color-interpolation-filters="sRGB">
<feFlood flood-opacity="0" result="BackgroundImageFix"/>
<feColorMatrix in="SourceAlpha" type="matrix" values="0 0 0 0 0 0 0 0 0 0 0 0 0 0 0 0 0 0 127 0" result="hardAlpha"/>
<feOffset dy="2"/>
<feGaussianBlur stdDeviation="3"/>
<feColorMatrix type="matrix" values="0 0 0 0 0.791667 0 0 0 0 0.791667 0 0 0 0 0.791667 0 0 0 0.25 0"/>
<feBlend mode="normal" in2="BackgroundImageFix" result="effect1_dropShadow_3434_2"/>
<feBlend mode="normal" in="SourceGraphic" in2="effect1_dropShadow_3434_2" result="shape"/>
</filter>
</defs>
</svg>
